<svg width="266" height="266" viewBox="0 0 266 266" fill="none" xmlns="http://www.w3.org/2000/svg">
<path d="M162.703 88.7863C163.353 84.8847 163.692 80.8863 163.692 76.8141C163.692 72.7419 163.353 68.7435 162.703 64.8419L144.731 64.1303C143.075 56.8681 140.029 50.0903 135.865 44.0549L148.037 31.6241C143.001 25.1377 136.908 19.4196 129.997 14.6924L116.751 26.1168C110.321 22.2084 103.099 19.3493 95.3608 17.7958L94.6027 0.928463C90.4455 0.318065 86.186 0 81.8461 0C77.5063 0 73.2459 0.318065 69.0896 0.928463L68.3315 17.7958C60.5935 19.3493 53.3717 22.2084 46.9409 26.1168L33.6958 14.6924C26.7836 19.4196 20.6917 25.1377 15.6549 31.6241L27.8277 44.0549C23.6632 50.0903 20.6159 56.8681 18.9616 64.1303L0.989286 64.8419C0.338901 68.7435 0 72.7419 0 76.8141C0 80.8863 0.338901 84.8847 0.989286 88.7863L18.9616 89.4979C20.6168 96.76 23.6632 103.538 27.8277 109.573L15.6549 122.004C20.6917 128.49 26.7845 134.209 33.6958 138.936L46.9409 127.511C53.3717 131.42 60.5935 134.279 68.3315 135.832L69.0896 152.7C73.2468 153.31 77.5072 153.628 81.8461 153.628C86.1851 153.628 90.4455 153.31 94.6027 152.7L95.3608 135.832C103.099 134.279 110.321 131.42 116.751 127.511L129.997 138.936C136.908 134.209 143.001 128.49 148.037 122.004L135.865 109.573C140.029 103.538 143.075 96.76 144.731 89.4979L162.703 88.7863ZM81.8461 126.195C52.7871 126.195 29.2308 104.087 29.2308 76.8141C29.2308 49.5417 52.7871 27.4336 81.8461 27.4336C110.905 27.4336 134.462 49.5417 134.462 76.8141C134.462 104.087 110.905 126.195 81.8461 126.195Z" fill="#FF4848"/>
<path d="M81.8442 32.9194C56.0143 32.9194 35.075 52.5713 35.075 76.8132C35.075 101.055 56.0143 120.707 81.8442 120.707C107.674 120.707 128.613 101.055 128.613 76.8132C128.613 52.5713 107.674 32.9194 81.8442 32.9194ZM81.8442 87.7866C75.387 87.7866 70.1519 82.8735 70.1519 76.8132C70.1519 70.7529 75.387 65.8398 81.8442 65.8398C88.3015 65.8398 93.5365 70.7529 93.5365 76.8132C93.5365 82.8735 88.3015 87.7866 81.8442 87.7866Z" fill="#FF4848"/>
<path d="M265.258 162.608C265.746 159.682 266 156.683 266 153.629C266 150.575 265.746 147.576 265.258 144.649L251.779 144.116C250.537 138.669 248.253 133.586 245.129 129.059L254.259 119.736C250.481 114.871 245.912 110.583 240.728 107.037L230.794 115.606C225.971 112.674 220.555 110.53 214.751 109.365L214.183 96.7144C211.065 96.2566 207.87 96.0181 204.615 96.0181C201.36 96.0181 198.165 96.2566 195.048 96.7144L194.479 109.365C188.676 110.53 183.26 112.674 178.436 115.606L168.503 107.037C163.318 110.583 158.75 114.871 154.972 119.736L164.101 129.059C160.978 133.586 158.693 138.669 157.452 144.116L143.973 144.649C143.485 147.576 143.231 150.575 143.231 153.629C143.231 156.683 143.485 159.682 143.973 162.608L157.452 163.141C158.693 168.588 160.978 173.671 164.101 178.198L154.972 187.521C158.75 192.386 163.319 196.675 168.503 200.22L178.436 191.652C183.26 194.583 188.676 196.727 194.479 197.892L195.048 210.543C198.166 211.001 201.361 211.239 204.615 211.239C207.87 211.239 211.065 211.001 214.183 210.543L214.751 197.892C220.555 196.727 225.971 194.583 230.794 191.652L240.728 200.22C245.912 196.675 250.481 192.386 254.259 187.521L245.129 178.198C248.253 173.671 250.537 168.588 251.779 163.141L265.258 162.608ZM204.615 190.664C182.821 190.664 165.154 174.083 165.154 153.629C165.154 133.174 182.821 116.593 204.615 116.593C226.41 116.593 244.077 133.174 244.077 153.629C244.077 174.083 226.41 190.664 204.615 190.664Z" fill="#CCFF00"/>
<path d="M204.614 120.708C185.241 120.708 169.537 135.447 169.537 153.628C169.537 171.81 185.241 186.549 204.614 186.549C223.986 186.549 239.691 171.81 239.691 153.628C239.691 135.447 223.986 120.708 204.614 120.708ZM204.614 161.858C199.771 161.858 195.845 158.174 195.845 153.628C195.845 149.083 199.771 145.398 204.614 145.398C209.457 145.398 213.383 149.083 213.383 153.628C213.383 158.174 209.457 161.858 204.614 161.858Z" fill="#CCFF00"/>
<path d="M152.372 223.332C153.284 220.842 154.004 218.255 154.51 215.582C155.017 212.909 155.292 210.247 155.35 207.615L143.643 205.179C143.459 200.231 142.303 195.448 140.32 191.03L149.856 184.205C147.357 179.396 144.069 174.975 140.121 171.115L130.006 177.162C126.272 173.892 121.887 171.224 117.002 169.356L118.602 158.202C115.949 157.346 113.193 156.67 110.345 156.195C107.496 155.719 104.66 155.461 101.856 155.406L99.2605 166.395C93.9884 166.566 88.8927 167.651 84.1856 169.512L76.913 160.562C71.7881 162.907 67.0783 165.993 62.9655 169.699L69.409 179.192C65.9248 182.697 63.0816 186.811 61.0925 191.397L49.2076 189.894C48.2954 192.384 47.5756 194.971 47.069 197.644C46.5625 200.317 46.2876 202.979 46.2291 205.611L57.937 208.047C58.1201 212.995 59.2765 217.778 61.2591 222.196L51.7231 229.021C54.2222 233.83 57.51 238.251 61.4583 242.111L71.573 236.064C75.3078 239.334 79.6923 242.002 84.5779 243.87L82.9774 255.024C85.6301 255.88 88.3869 256.556 91.2348 257.031C94.0827 257.507 96.9187 257.765 99.7232 257.82L102.319 246.832C107.591 246.66 112.687 245.575 117.394 243.714L124.667 252.664C129.791 250.319 134.501 247.233 138.614 243.528L132.171 234.034C135.655 230.529 138.497 226.414 140.487 221.829L152.372 223.332ZM94.6473 239.025C75.574 235.84 62.8626 218.748 66.255 200.847C69.6474 182.947 87.859 171.017 106.932 174.201C126.005 177.386 138.717 194.478 135.325 212.379C131.932 230.279 113.721 242.209 94.6473 239.025Z" fill="#FF4848"/>
<path d="M106.249 177.802C89.2948 174.972 73.1063 185.576 70.0906 201.488C67.0749 217.399 78.374 232.592 95.3279 235.422C112.282 238.253 128.47 227.648 131.486 211.737C134.502 195.825 123.202 180.632 106.249 177.802ZM99.4232 213.815C95.1848 213.107 92.3599 209.309 93.1138 205.331C93.8677 201.353 97.915 198.702 102.153 199.41C106.392 200.117 109.217 203.916 108.463 207.893C107.709 211.871 103.661 214.522 99.4232 213.815Z" fill="#FF4848"/>
</svg>
