<svg width="220" height="236" viewBox="0 0 220 236" fill="none" xmlns="http://www.w3.org/2000/svg">
<path d="M134.566 79.0504C135.104 75.6121 135.385 72.0885 135.385 68.4999C135.385 64.9113 135.104 61.3877 134.566 57.9494L119.702 57.3224C118.333 50.9226 115.814 44.9496 112.369 39.631L122.437 28.6763C118.271 22.9602 113.232 17.9211 107.516 13.7553L96.5613 23.823C91.2426 20.3787 85.2697 17.8591 78.8699 16.4902L78.2428 1.62582C74.8046 1.08791 71.2817 0.807617 67.6923 0.807617C64.103 0.807617 60.5793 1.08791 57.1418 1.62582L56.5147 16.4902C50.115 17.8591 44.142 20.3787 38.8233 23.823L27.8687 13.7553C22.1518 17.9211 17.1135 22.9602 12.9477 28.6763L23.0154 39.631C19.5711 44.9496 17.0508 50.9226 15.6826 57.3224L0.818206 57.9494C0.280294 61.3877 0 64.9113 0 68.4999C0 72.0885 0.280294 75.6121 0.818206 79.0504L15.6826 79.6775C17.0515 86.0773 19.5711 92.0502 23.0154 97.3689L12.9477 108.324C17.1135 114.04 22.1526 119.079 27.8687 123.245L38.8233 113.177C44.142 116.621 50.115 119.141 56.5147 120.51L57.1418 135.374C60.58 135.912 64.1037 136.192 67.6923 136.192C71.2809 136.192 74.8046 135.912 78.2428 135.374L78.8699 120.51C85.2697 119.141 91.2426 116.621 96.5613 113.177L107.516 123.245C113.232 119.079 118.271 114.04 122.437 108.324L112.369 97.3689C115.814 92.0502 118.333 86.0773 119.702 79.6775L134.566 79.0504ZM67.6923 112.016C43.6585 112.016 24.1758 92.5337 24.1758 68.4999C24.1758 44.4661 43.6585 24.9834 67.6923 24.9834C91.7261 24.9834 111.209 44.4661 111.209 68.4999C111.209 92.5337 91.7261 112.016 67.6923 112.016Z" fill="#FF4848"/>
<path d="M67.6907 29.8174C46.3276 29.8174 29.0094 47.1356 29.0094 68.4987C29.0094 89.8618 46.3276 107.18 67.6907 107.18C89.0539 107.18 106.372 89.8618 106.372 68.4987C106.372 47.1356 89.0539 29.8174 67.6907 29.8174ZM67.6907 78.169C62.3501 78.169 58.0204 73.8393 58.0204 68.4987C58.0204 63.1581 62.3501 58.8284 67.6907 58.8284C73.0313 58.8284 77.3611 63.1581 77.3611 68.4987C77.3611 73.8393 73.0313 78.169 67.6907 78.169Z" fill="#FF4848"/>
<path d="M219.386 144.105C219.79 141.526 220 138.884 220 136.192C220 133.501 219.79 130.858 219.386 128.279L208.238 127.809C207.211 123.009 205.322 118.529 202.738 114.54L210.289 106.324C207.165 102.037 203.386 98.2579 199.099 95.1336L190.882 102.684C186.893 100.101 182.414 98.2115 177.614 97.1848L177.144 86.0365C174.565 85.6331 171.923 85.4229 169.231 85.4229C166.539 85.4229 163.896 85.6331 161.318 86.0365L160.848 97.1848C156.048 98.2115 151.568 100.101 147.579 102.684L139.363 95.1336C135.075 98.2579 131.297 102.037 128.172 106.324L135.723 114.54C133.14 118.529 131.25 123.009 130.223 127.809L119.075 128.279C118.672 130.858 118.462 133.501 118.462 136.192C118.462 138.884 118.672 141.526 119.075 144.105L130.223 144.575C131.25 149.375 133.14 153.855 135.723 157.844L128.172 166.06C131.297 170.347 135.076 174.126 139.363 177.251L147.579 169.7C151.568 172.283 156.048 174.173 160.848 175.199L161.318 186.348C163.897 186.751 166.539 186.961 169.231 186.961C171.922 186.961 174.565 186.751 177.144 186.348L177.614 175.199C182.414 174.173 186.893 172.283 190.882 169.7L199.099 177.251C203.386 174.126 207.165 170.347 210.289 166.06L202.738 157.844C205.322 153.855 207.211 149.375 208.238 144.575L219.386 144.105ZM169.231 168.829C151.205 168.829 136.593 154.217 136.593 136.192C136.593 118.167 151.205 103.555 169.231 103.555C187.256 103.555 201.868 118.167 201.868 136.192C201.868 154.217 187.256 168.829 169.231 168.829Z" fill="#CCFF00"/>
<path d="M169.23 107.18C153.207 107.18 140.219 120.168 140.219 136.191C140.219 152.213 153.207 165.202 169.23 165.202C185.252 165.202 198.241 152.213 198.241 136.191C198.241 120.168 185.252 107.18 169.23 107.18ZM169.23 143.443C165.224 143.443 161.977 140.196 161.977 136.191C161.977 132.185 165.224 128.938 169.23 128.938C173.235 128.938 176.482 132.185 176.482 136.191C176.482 140.196 173.235 143.443 169.23 143.443Z" fill="#CCFF00"/>
<path d="M126.022 197.62C126.777 195.426 127.372 193.146 127.791 190.79C128.21 188.435 128.437 186.089 128.486 183.77L118.802 181.622C118.651 177.262 117.694 173.047 116.055 169.154L123.941 163.139C121.875 158.901 119.155 155.005 115.89 151.603L107.524 156.932C104.435 154.051 100.809 151.699 96.7683 150.054L98.0919 140.224C95.898 139.469 93.6184 138.874 91.2625 138.455C88.9066 138.036 86.5611 137.808 84.242 137.76L82.0953 147.443C77.7349 147.595 73.5204 148.551 69.6273 150.191L63.6124 142.303C59.3738 144.37 55.4785 147.089 52.077 150.355L57.4062 158.721C54.5246 161.809 52.1731 165.436 50.528 169.476L40.6984 168.152C39.944 170.346 39.3487 172.626 38.9298 174.982C38.5109 177.337 38.2835 179.683 38.2352 182.002L47.9184 184.15C48.0698 188.51 49.0263 192.725 50.6661 196.618L42.7793 202.633C44.8463 206.871 47.5655 210.767 50.831 214.168L59.1965 208.839C62.2854 211.721 65.9117 214.072 69.9525 215.718L68.6288 225.548C70.8228 226.302 73.1028 226.898 75.4583 227.317C77.8137 227.736 80.1592 227.963 82.4787 228.012L84.6255 218.329C88.9859 218.177 93.2004 217.221 97.0935 215.581L103.108 223.469C107.347 221.402 111.242 218.683 114.644 215.417L109.315 207.051C112.196 203.962 114.547 200.336 116.193 196.295L126.022 197.62ZM78.2804 211.449C62.5056 208.642 51.9922 193.58 54.7978 177.805C57.6035 162.03 72.6655 151.517 88.4403 154.323C104.215 157.129 114.729 172.192 111.923 187.967C109.117 203.742 94.0553 214.255 78.2804 211.449Z" fill="#47FFA7"/>
<path d="M87.8748 157.495C73.8528 155 60.4639 164.346 57.9697 178.368C55.4755 192.39 64.8206 205.778 78.8426 208.273C92.8646 210.767 106.254 201.422 108.748 187.4C111.242 173.378 101.897 159.989 87.8748 157.495ZM82.2297 189.231C78.7243 188.607 76.3879 185.26 77.0115 181.755C77.635 178.249 80.9824 175.913 84.4877 176.536C87.9931 177.16 90.3295 180.507 89.706 184.013C89.0824 187.518 85.7351 189.854 82.2297 189.231Z" fill="#47FFA7"/>
</svg>
